<svg xmlns="http://www.w3.org/2000/svg" xmlns:xlink="http://www.w3.org/1999/xlink" contentStyleType="text/css" data-diagram-type="DESCRIPTION" height="1461.6667px" preserveAspectRatio="none" style="width:825px;height:1461px;background:#FFFFFF;" version="1.1" viewBox="0 0 825 1461" width="825px" zoomAndPan="magnify"><?plantuml 1.2026.3beta6?><defs/><g><!--cluster Quiz System--><g class="cluster" data-qualified-name="Quiz System" data-source-line="18" id="ent0010"><rect fill="none" height="1385" rx="4.1667" ry="4.1667" style="stroke:#181818;stroke-width:1.6667;" width="421.2333" x="381.0333" y="11.6667"/><text fill="#000000" font-family="sans-serif" font-size="23.3333" font-weight="700" lengthAdjust="spacing" textLength="163.3447" x="509.9776" y="36.6585">Quiz System</text></g><!--entity UC_Auth--><g class="entity" data-qualified-name="Quiz System.UC_Auth" data-source-line="19" id="ent0011"><ellipse cx="591.6522" cy="100.0004" fill="#F1F1F1" rx="130.3355" ry="30.0671" style="stroke:#181818;stroke-width:0.8333;"/><text fill="#000000" font-family="sans-serif" font-size="23.3333" lengthAdjust="spacing" textLength="210.695" x="486.3047" y="107.7478">Authenticate User</text></g><!--entity UC_Quiz--><g class="entity" data-qualified-name="Quiz System.UC_Quiz" data-source-line="20" id="ent0012"><ellipse cx="591.6442" cy="583.3322" fill="#F1F1F1" rx="106.9108" ry="25.3822" style="stroke:#181818;stroke-width:0.8333;"/><text fill="#000000" font-family="sans-serif" font-size="23.3333" lengthAdjust="spacing" textLength="151.9857" x="515.6513" y="591.0796">Manage Quiz</text></g><!--entity UC_AI--><g class="entity" data-qualified-name="Quiz System.UC_AI" data-source-line="21" id="ent0013"><ellipse cx="591.6511" cy="1191.6669" fill="#F1F1F1" rx="173.6678" ry="38.7336" style="stroke:#181818;stroke-width:0.8333;"/><text fill="#000000" font-family="sans-serif" font-size="23.3333" lengthAdjust="spacing" textLength="308.7907" x="437.2558" y="1199.4143">Generate Quiz (AI Prompt)</text></g><!--entity UC_OCR--><g class="entity" data-qualified-name="Quiz System.UC_OCR" data-source-line="22" id="ent0014"><ellipse cx="591.6448" cy="1330.0056" fill="#F1F1F1" rx="183.9448" ry="40.789" style="stroke:#181818;stroke-width:0.8333;"/><text fill="#000000" font-family="sans-serif" font-size="23.3333" lengthAdjust="spacing" textLength="331.1214" x="426.0841" y="1337.753">Generate Quiz (Image Scan)</text></g><!--entity UC_Host--><g class="entity" data-qualified-name="Quiz System.UC_Host" data-source-line="23" id="ent0015"><ellipse cx="591.6492" cy="469.9932" fill="#F1F1F1" rx="127.7992" ry="29.5598" style="stroke:#181818;stroke-width:0.8333;"/><text fill="#000000" font-family="sans-serif" font-size="23.3333" lengthAdjust="spacing" textLength="204.6338" x="489.3323" y="477.7406">Host Live Session</text></g><!--entity UC_Join--><g class="entity" data-qualified-name="Quiz System.UC_Join" data-source-line="24" id="ent0016"><ellipse cx="591.6418" cy="816.665" fill="#F1F1F1" rx="136.0751" ry="31.215" style="stroke:#181818;stroke-width:0.8333;"/><text fill="#000000" font-family="sans-serif" font-size="23.3333" lengthAdjust="spacing" textLength="224.2301" x="479.5267" y="824.4124">Join Session (Code)</text></g><!--entity UC_Submit--><g class="entity" data-qualified-name="Quiz System.UC_Submit" data-source-line="25" id="ent0017"><ellipse cx="591.6445" cy="934.9989" fill="#F1F1F1" rx="127.2445" ry="29.4489" style="stroke:#181818;stroke-width:0.8333;"/><text fill="#000000" font-family="sans-serif" font-size="23.3333" lengthAdjust="spacing" textLength="203.3008" x="489.9941" y="942.7463">Submit Response</text></g><!--entity UC_Board--><g class="entity" data-qualified-name="Quiz System.UC_Board" data-source-line="26" id="ent0018"><ellipse cx="591.6424" cy="696.6685" fill="#F1F1F1" rx="130.6757" ry="30.1351" style="stroke:#181818;stroke-width:0.8333;"/><text fill="#000000" font-family="sans-serif" font-size="23.3333" lengthAdjust="spacing" textLength="211.5039" x="485.8904" y="704.4159">View Leaderboard</text></g><!--entity UC_Analytics--><g class="entity" data-qualified-name="Quiz System.UC_Analytics" data-source-line="27" id="ent0019"><ellipse cx="591.6486" cy="223.3397" fill="#F1F1F1" rx="154.1986" ry="34.8397" style="stroke:#181818;stroke-width:0.8333;"/><text fill="#000000" font-family="sans-serif" font-size="23.3333" lengthAdjust="spacing" textLength="265.7015" x="458.7979" y="231.0871">View Session Analytics</text></g><!--entity UC_Export--><g class="entity" data-qualified-name="Quiz System.UC_Export" data-source-line="28" id="ent0020"><ellipse cx="591.6418" cy="349.9984" fill="#F1F1F1" rx="143.6584" ry="32.7317" style="stroke:#181818;stroke-width:0.8333;"/><text fill="#000000" font-family="sans-serif" font-size="23.3333" lengthAdjust="spacing" textLength="241.7871" x="470.7482" y="357.7457">Export Results (CSV)</text></g><!--entity UC_Admin--><g class="entity" data-qualified-name="Quiz System.UC_Admin" data-source-line="29" id="ent0021"><ellipse cx="591.6558" cy="1058.3412" fill="#F1F1F1" rx="158.1225" ry="35.6245" style="stroke:#181818;stroke-width:0.8333;"/><text fill="#000000" font-family="sans-serif" font-size="23.3333" lengthAdjust="spacing" textLength="274.4857" x="454.413" y="1066.0886">Manage Users/Sessions</text></g><!--entity User--><g class="entity" data-qualified-name="User" data-source-line="8" id="ent0002"><ellipse cx="36.5918" cy="598.9167" fill="#F1F1F1" rx="13.3333" ry="13.3333" style="stroke:#181818;stroke-width:0.8333;"/><path d="M36.5918,612.25 L36.5918,657.25 M14.9251,625.5833 L58.2585,625.5833 M36.5918,657.25 L14.9251,682.25 M36.5918,657.25 L58.2585,682.25" fill="none" style="stroke:#181818;stroke-width:0.8333;"/><text fill="#000000" font-family="sans-serif" font-size="23.3333" lengthAdjust="spacing" textLength="53.1836" x="10" y="706.4085">User</text></g><!--entity Creator--><g class="entity" data-qualified-name="Creator" data-source-line="9" id="ent0003"><ellipse cx="235.4451" cy="477.25" fill="#F1F1F1" rx="13.3333" ry="13.3333" style="stroke:#181818;stroke-width:0.8333;"/><path d="M235.4451,490.5833 L235.4451,535.5833 M213.7785,503.9167 L257.1118,503.9167 M235.4451,535.5833 L213.7785,560.5833 M235.4451,535.5833 L257.1118,560.5833" fill="none" style="stroke:#181818;stroke-width:0.8333;"/><text fill="#000000" font-family="sans-serif" font-size="23.3333" lengthAdjust="spacing" textLength="87.557" x="191.6667" y="584.7419">Creator</text></g><!--entity Participant--><g class="entity" data-qualified-name="Participant" data-source-line="10" id="ent0004"><ellipse cx="235.4427" cy="715.5833" fill="#F1F1F1" rx="13.3333" ry="13.3333" style="stroke:#181818;stroke-width:0.8333;"/><path d="M235.4427,728.9167 L235.4427,773.9167 M213.7761,742.25 L257.1094,742.25 M235.4427,773.9167 L213.7761,798.9167 M235.4427,773.9167 L257.1094,798.9167" fill="none" style="stroke:#181818;stroke-width:0.8333;"/><text fill="#000000" font-family="sans-serif" font-size="23.3333" lengthAdjust="spacing" textLength="125.9521" x="172.4667" y="823.0752">Participant</text></g><!--entity Admin--><g class="entity" data-qualified-name="Admin" data-source-line="11" id="ent0005"><ellipse cx="235.4369" cy="957.25" fill="#F1F1F1" rx="13.3333" ry="13.3333" style="stroke:#181818;stroke-width:0.8333;"/><path d="M235.4369,970.5833 L235.4369,1015.5833 M213.7702,983.9167 L257.1035,983.9167 M235.4369,1015.5833 L213.7702,1040.5833 M235.4369,1015.5833 L257.1035,1040.5833" fill="none" style="stroke:#181818;stroke-width:0.8333;"/><text fill="#000000" font-family="sans-serif" font-size="23.3333" lengthAdjust="spacing" textLength="74.7738" x="198.05" y="1064.7419">Admin</text></g><!--entity AI--><g class="entity" data-qualified-name="AI" data-source-line="12" id="ent0006"><ellipse cx="235.4479" cy="1142.25" fill="#F1F1F1" rx="13.3333" ry="13.3333" style="stroke:#181818;stroke-width:0.8333;"/><path d="M235.4479,1155.5833 L235.4479,1200.5833 M213.7812,1168.9167 L257.1146,1168.9167 M235.4479,1200.5833 L213.7812,1225.5833 M235.4479,1200.5833 L257.1146,1225.5833" fill="none" style="stroke:#181818;stroke-width:0.8333;"/><text fill="#000000" font-family="sans-serif" font-size="23.3333" lengthAdjust="spacing" textLength="116.4958" x="177.2" y="1249.7419">AI Service</text></g><!--entity OCR--><g class="entity" data-qualified-name="OCR" data-source-line="13" id="ent0007"><ellipse cx="235.4449" cy="1327.25" fill="#F1F1F1" rx="13.3333" ry="13.3333" style="stroke:#181818;stroke-width:0.8333;"/><path d="M235.4449,1340.5833 L235.4449,1385.5833 M213.7782,1353.9167 L257.1116,1353.9167 M235.4449,1385.5833 L213.7782,1410.5833 M235.4449,1385.5833 L257.1116,1410.5833" fill="none" style="stroke:#181818;stroke-width:0.8333;"/><text fill="#000000" font-family="sans-serif" font-size="23.3333" lengthAdjust="spacing" textLength="144.5231" x="163.1833" y="1434.7419">OCR Service</text></g><!--reverse link User to Creator--><g class="link" data-entity-1="ent0002" data-entity-2="ent0003" data-link-type="extension" data-source-line="15" id="lnk8"><path d="M93.4333,594.8667 C147.75,594.8667 235.6,594.8667 235.6,594.8667 C235.6,594.8667 235.6,593.2 235.6,590.4" fill="none" id="User-backto-Creator" style="stroke:#181818;stroke-width:1.6667;"/><polygon fill="none" points="63.4333,594.8667,93.4333,604.8667,93.4333,584.8667,63.4333,594.8667" style="stroke:#181818;stroke-width:1.6667;"/></g><!--reverse link User to Participant--><g class="link" data-entity-1="ent0002" data-entity-2="ent0004" data-link-type="extension" data-source-line="16" id="lnk9"><path d="M93.9833,683.9833 C136.1833,683.9833 182.2667,683.9833 182.2667,683.9833 C182.2667,683.9833 182.2667,691.1167 182.2667,701.1667" fill="none" id="User-backto-Participant" style="stroke:#181818;stroke-width:1.6667;"/><polygon fill="none" points="63.9833,683.9833,93.9833,693.9833,93.9833,673.9833,63.9833,683.9833" style="stroke:#181818;stroke-width:1.6667;"/></g><!--link Creator to UC_Quiz--><g class="link" data-entity-1="ent0003" data-entity-2="ent0012" data-link-type="association" data-source-line="32" id="lnk22"><path d="M279.8333,574.1 C332.4333,574.1 421.6833,574.1 491.25,574.1" fill="none" id="Creator-UC_Quiz" style="stroke:#181818;stroke-width:1.6667;"/></g><!--link Creator to UC_Host--><g class="link" data-entity-1="ent0003" data-entity-2="ent0015" data-link-type="association" data-source-line="33" id="lnk23"><path d="M279.8333,481.3333 C327.7667,481.3333 406.15,481.3333 472.3333,481.3333" fill="none" id="Creator-UC_Host" style="stroke:#181818;stroke-width:1.6667;"/></g><!--link Creator to UC_Board--><g class="link" data-entity-1="ent0003" data-entity-2="ent0018" data-link-type="association" data-source-line="34" id="lnk24"><path d="M280.05,582.1833 C349.5,582.1833 475.6,582.1833 475.6,582.1833 C475.6,582.1833 475.6,651.3667 475.6,682.1667" fill="none" id="Creator-UC_Board" style="stroke:#181818;stroke-width:1.6667;"/></g><!--link Creator to UC_Analytics--><g class="link" data-entity-1="ent0003" data-entity-2="ent0019" data-link-type="association" data-source-line="35" id="lnk25"><path d="M222.2667,462.3333 C222.2667,373.3 222.2667,223.3333 222.2667,223.3333 C222.2667,223.3333 335.9167,223.3333 437.1333,223.3333" fill="none" id="Creator-UC_Analytics" style="stroke:#181818;stroke-width:1.6667;"/></g><!--link Creator to UC_Export--><g class="link" data-entity-1="ent0003" data-entity-2="ent0020" data-link-type="association" data-source-line="36" id="lnk26"><path d="M250.6,462.3833 C250.6,411.8833 250.6,350 250.6,350 C250.6,350 354.4333,350 447.5,350" fill="none" id="Creator-UC_Export" style="stroke:#181818;stroke-width:1.6667;"/></g><!--link Participant to UC_Join--><g class="link" data-entity-1="ent0004" data-entity-2="ent0016" data-link-type="association" data-source-line="38" id="lnk27"><path d="M299.1333,814.2 C342.55,814.2 401.7167,814.2 455.4667,814.2" fill="none" id="Participant-UC_Join" style="stroke:#181818;stroke-width:1.6667;"/></g><!--link Participant to UC_Submit--><g class="link" data-entity-1="ent0004" data-entity-2="ent0017" data-link-type="association" data-source-line="39" id="lnk28"><path d="M283.9333,829.35 C283.9333,873.5667 283.9333,924.3167 283.9333,924.3167 C283.9333,924.3167 385.7333,924.3167 472.2333,924.3167" fill="none" id="Participant-UC_Submit" style="stroke:#181818;stroke-width:1.6667;"/></g><!--link Participant to UC_Board--><g class="link" data-entity-1="ent0004" data-entity-2="ent0018" data-link-type="association" data-source-line="40" id="lnk29"><path d="M299.1333,714.1167 C350.15,714.1167 422.9167,714.1167 483.1,714.1167" fill="none" id="Participant-UC_Board" style="stroke:#181818;stroke-width:1.6667;"/></g><!--link Admin to UC_Admin--><g class="link" data-entity-1="ent0005" data-entity-2="ent0021" data-link-type="association" data-source-line="42" id="lnk30"><path d="M273.5667,1046.4833 C313.95,1046.4833 380.2667,1046.4833 441.9333,1046.4833" fill="none" id="Admin-UC_Admin" style="stroke:#181818;stroke-width:1.6667;"/></g><!--link AI to UC_AI--><g class="link" data-entity-1="ent0006" data-entity-2="ent0013" data-link-type="association" data-source-line="43" id="lnk31"><path d="M294.2667,1191.6667 C328.25,1191.6667 372.9667,1191.6667 417.3667,1191.6667" fill="none" id="AI-UC_AI" style="stroke:#181818;stroke-width:1.6667;"/></g><!--link OCR to UC_OCR--><g class="link" data-entity-1="ent0007" data-entity-2="ent0014" data-link-type="association" data-source-line="44" id="lnk32"><path d="M308.3833,1341.9333 C339.5333,1341.9333 377.35,1341.9333 415.0833,1341.9333" fill="none" id="OCR-UC_OCR" style="stroke:#181818;stroke-width:1.6667;"/></g><!--link UC_Quiz to UC_Auth--><g class="link" data-entity-1="ent0012" data-entity-2="ent0011" data-link-type="dependency" data-source-line="46" id="lnk33"><path d="M510.7667,566.0333 C469.9333,566.0333 428.9333,566.0333 428.9333,566.0333 C428.9333,566.0333 428.9333,100 428.9333,100 C428.9333,100 432.1667,100 451.0833,100" fill="none" id="UC_Quiz-to-UC_Auth" style="stroke:#181818;stroke-width:1.6667;stroke-dasharray:11.6667,11.6667;"/><polygon fill="#181818" points="461.0833,100,446.0833,93.3333,452.75,100,446.0833,106.6667,461.0833,100" style="stroke:#181818;stroke-width:1.6667;"/><text fill="#000000" font-family="sans-serif" font-size="21.6667" lengthAdjust="spacing" textLength="105.0114" x="322.2667" y="379.6448">&#171;include&#187;</text></g><!--link UC_Host to UC_Auth--><g class="link" data-entity-1="ent0015" data-entity-2="ent0011" data-link-type="dependency" data-source-line="47" id="lnk34"><path d="M489.2,451.7667 C457.4333,451.7667 430.6,451.7667 430.6,451.7667 C430.6,451.7667 430.6,115.0333 430.6,115.0333 C430.6,115.0333 440.95,115.0333 467.1833,115.0333" fill="none" id="UC_Host-to-UC_Auth" style="stroke:#181818;stroke-width:1.6667;stroke-dasharray:11.6667,11.6667;"/><polygon fill="#181818" points="477.1833,115.0333,462.1833,108.3667,468.85,115.0333,462.1833,121.7,477.1833,115.0333" style="stroke:#181818;stroke-width:1.6667;"/><text fill="#000000" font-family="sans-serif" font-size="21.6667" lengthAdjust="spacing" textLength="105.0114" x="323.9333" y="311.1948">&#171;include&#187;</text></g><!--link UC_Join to UC_Auth--><g class="link" data-entity-1="ent0016" data-entity-2="ent0011" data-link-type="dependency" data-source-line="48" id="lnk35"><path d="M475.4,799.8333 C445.8333,799.8333 422.2667,799.8333 422.2667,799.8333 C422.2667,799.8333 422.2667,84.9667 422.2667,84.9667 C422.2667,84.9667 436.8333,84.9667 467.2667,84.9667" fill="none" id="UC_Join-to-UC_Auth" style="stroke:#181818;stroke-width:1.6667;stroke-dasharray:11.6667,11.6667;"/><polygon fill="#181818" points="477.2667,84.9667,462.2667,78.3,468.9333,84.9667,462.2667,91.6333,477.2667,84.9667" style="stroke:#181818;stroke-width:1.6667;"/><text fill="#000000" font-family="sans-serif" font-size="21.6667" lengthAdjust="spacing" textLength="105.0114" x="315.6" y="463.2448">&#171;include&#187;</text></g><!--link UC_Submit to UC_Join--><g class="link" data-entity-1="ent0017" data-entity-2="ent0016" data-link-type="dependency" data-source-line="49" id="lnk36"><path d="M592.2667,905.15 C592.2667,887.8833 592.2667,876.1833 592.2667,858.6" fill="none" id="UC_Submit-to-UC_Join" style="stroke:#181818;stroke-width:1.6667;stroke-dasharray:11.6667,11.6667;"/><polygon fill="#181818" points="592.2667,848.6,585.6,863.6,592.2667,856.9333,598.9333,863.6,592.2667,848.6" style="stroke:#181818;stroke-width:1.6667;"/><text fill="#000000" font-family="sans-serif" font-size="21.6667" lengthAdjust="spacing" textLength="105.0114" x="485.6" y="898.6448">&#171;include&#187;</text></g><!--link UC_Export to UC_Analytics--><g class="link" data-entity-1="ent0020" data-entity-2="ent0019" data-link-type="dependency" data-source-line="50" id="lnk37"><path d="M592.2667,316.7167 C592.2667,298.8333 592.2667,286.7833 592.2667,268.6167" fill="none" id="UC_Export-to-UC_Analytics" style="stroke:#181818;stroke-width:1.6667;stroke-dasharray:11.6667,11.6667;"/><polygon fill="#181818" points="592.2667,258.6167,585.6,273.6167,592.2667,266.95,598.9333,273.6167,592.2667,258.6167" style="stroke:#181818;stroke-width:1.6667;"/><text fill="#000000" font-family="sans-serif" font-size="21.6667" lengthAdjust="spacing" textLength="105.0114" x="485.6" y="309.4448">&#171;include&#187;</text></g><!--link UC_AI to UC_Quiz--><g class="link" data-entity-1="ent0013" data-entity-2="ent0012" data-link-type="dependency" data-source-line="51" id="lnk38"><path d="M425.6,1179.9333 C425.6,1097.1167 425.6,604.1 425.6,604.1 C425.6,604.1 469.6,604.1 516.0167,604.1" fill="none" id="UC_AI-to-UC_Quiz" style="stroke:#181818;stroke-width:1.6667;stroke-dasharray:11.6667,11.6667;"/><polygon fill="#181818" points="526.0167,604.1,511.0167,597.4333,517.6833,604.1,511.0167,610.7667,526.0167,604.1" style="stroke:#181818;stroke-width:1.6667;"/><text fill="#000000" font-family="sans-serif" font-size="21.6667" lengthAdjust="spacing" textLength="101.9751" x="322.2667" y="863.5782">&#171;extend&#187;</text></g><!--link UC_OCR to UC_Quiz--><g class="link" data-entity-1="ent0014" data-entity-2="ent0012" data-link-type="dependency" data-source-line="52" id="lnk39"><path d="M458.9833,1301.15 C406.7167,1301.15 358.9333,1301.15 358.9333,1301.15 C358.9333,1301.15 358.9333,599.4833 358.9333,599.4833 C358.9333,599.4833 430.4333,599.4833 496.9833,599.4833" fill="none" id="UC_OCR-to-UC_Quiz" style="stroke:#181818;stroke-width:1.6667;stroke-dasharray:11.6667,11.6667;"/><polygon fill="#181818" points="506.9833,599.4833,491.9833,592.8167,498.65,599.4833,491.9833,606.15,506.9833,599.4833" style="stroke:#181818;stroke-width:1.6667;"/><text fill="#000000" font-family="sans-serif" font-size="21.6667" lengthAdjust="spacing" textLength="101.9751" x="360.6" y="948.0948">&#171;extend&#187;</text></g><?plantuml-src VPBBRjim44NNvLSCl4eNQPnDKHI60TK8MXKfcaP8jiL4cbX4958WgTZkuz_BfqpLI5OYvnxDYxUZHmD6WkBRra335TM6Iy7q4nS3AknXmFe9jrIPGqVWP1JRZZ90jzZ87HTRUCHEvqh71Pd3G22LQMKcD0E7o_TBfckqINlSm-M7vH9sl34jOrWRgU1Eauh7ZIAqttYxGMLupGSK9aQAfkSYdXT52HMfPrxJ0b13KIRX--PsfjWxOwuAhFwSdqz5Zf6y49icXyMFaV-2wg0DzGlupTwCcchKLYX6qvAm_w0Xtx-lSxVvwOIC-uR2RXHSdaIuSqPy9a7APV6rpknCDqhsWtaxPInVfilUPQzg51FkPZtoNwGsSCsVBKHQs-TEc1Coxgla8Y5mjf4DJGcTb97L-D1p0xUa1oaq9Ig4C-wUqmwk2HjI3n9Lay1Fxl8_boeN0hk3tQgUXa-1x8-h_M1TvZeOEwDjjzNzr6pGJX_0FP6-Y6MEsRsR_Z8M7G7M2kc5vY6_hdae33AF7TkTnsDRBFDPLFnsJyDndQT2gCfyvwcedy8Q9rvBvlmVBi7vOIHujquEXO-mMd5HTsD3wpMB0xuAU8Uy1aHZ1CJJ9qXykPWbxUgKixC4nhVjPDeR4arGtNGloFy0?></g></svg>