<svg xmlns="http://www.w3.org/2000/svg" xmlns:xlink="http://www.w3.org/1999/xlink" contentStyleType="text/css" data-diagram-type="DESCRIPTION" height="2513px" preserveAspectRatio="none" style="width:590px;height:2513px;background:#FFFFFF;" version="1.1" viewBox="0 0 590 2513" width="590px" zoomAndPan="magnify"><?plantuml 1.2026.3beta6?><defs/><g><!--cluster Quiz System--><g class="cluster" data-qualified-name="Quiz System" data-source-line="14" id="ent0010"><rect fill="none" height="2492" rx="2.5" ry="2.5" style="stroke:#181818;stroke-width:1;" width="279.84" x="296.62" y="7"/><text fill="#000000" font-family="sans-serif" font-size="14" font-weight="700" lengthAdjust="spacing" textLength="98.0068" x="387.5366" y="21.9951">Quiz System</text></g><!--entity UC_Register--><g class="entity" data-qualified-name="Quiz System.UC_Register" data-source-line="15" id="ent0011"><ellipse cx="436.5354" cy="1495.0031" fill="#F1F1F1" rx="75.3154" ry="17.4631" style="stroke:#181818;stroke-width:0.5;"/><text fill="#000000" font-family="sans-serif" font-size="14" lengthAdjust="spacing" textLength="119.4922" x="376.7893" y="1499.6515">Register Account</text></g><!--entity UC_Login--><g class="entity" data-qualified-name="Quiz System.UC_Login" data-source-line="16" id="ent0012"><ellipse cx="436.5404" cy="1690.0036" fill="#F1F1F1" rx="29.8804" ry="14.5236" style="stroke:#181818;stroke-width:0.5;"/><text fill="#000000" font-family="sans-serif" font-size="14" lengthAdjust="spacing" textLength="38.0146" x="417.5331" y="1694.6521">Login</text></g><!--entity UC_Logout--><g class="entity" data-qualified-name="Quiz System.UC_Logout" data-source-line="17" id="ent0013"><ellipse cx="436.5382" cy="1562.0036" fill="#F1F1F1" rx="37.0682" ry="14.5236" style="stroke:#181818;stroke-width:0.5;"/><text fill="#000000" font-family="sans-serif" font-size="14" lengthAdjust="spacing" textLength="48.1797" x="412.4483" y="1566.6521">Logout</text></g><!--entity UC_Profile--><g class="entity" data-qualified-name="Quiz System.UC_Profile" data-source-line="18" id="ent0014"><ellipse cx="436.544" cy="1626.0048" fill="#F1F1F1" rx="60.824" ry="14.5648" style="stroke:#181818;stroke-width:0.5;"/><text fill="#000000" font-family="sans-serif" font-size="14" lengthAdjust="spacing" textLength="82.0654" x="395.5112" y="1630.6532">View Profile</text></g><!--entity UC_CreateQuiz--><g class="entity" data-qualified-name="Quiz System.UC_CreateQuiz" data-source-line="20" id="ent0015"><ellipse cx="436.5354" cy="826.9991" fill="#F1F1F1" rx="60.9454" ry="14.5891" style="stroke:#181818;stroke-width:0.5;"/><text fill="#000000" font-family="sans-serif" font-size="14" lengthAdjust="spacing" textLength="82.4072" x="395.3317" y="831.6475">Create Quiz</text></g><!--entity UC_EditQuiz--><g class="entity" data-qualified-name="Quiz System.UC_EditQuiz" data-source-line="21" id="ent0016"><ellipse cx="436.5402" cy="891.0036" fill="#F1F1F1" rx="47.3302" ry="14.5236" style="stroke:#181818;stroke-width:0.5;"/><text fill="#000000" font-family="sans-serif" font-size="14" lengthAdjust="spacing" textLength="62.6924" x="405.194" y="895.6521">Edit Quiz</text></g><!--entity UC_DeleteQuiz--><g class="entity" data-qualified-name="Quiz System.UC_DeleteQuiz" data-source-line="22" id="ent0017"><ellipse cx="436.542" cy="955.0004" fill="#F1F1F1" rx="60.652" ry="14.5304" style="stroke:#181818;stroke-width:0.5;"/><text fill="#000000" font-family="sans-serif" font-size="14" lengthAdjust="spacing" textLength="81.5801" x="395.752" y="959.6488">Delete Quiz</text></g><!--entity UC_AddQuestion--><g class="entity" data-qualified-name="Quiz System.UC_AddQuestion" data-source-line="23" id="ent0018"><ellipse cx="436.5388" cy="401.0018" fill="#F1F1F1" rx="65.3588" ry="15.4718" style="stroke:#181818;stroke-width:0.5;"/><text fill="#000000" font-family="sans-serif" font-size="14" lengthAdjust="spacing" textLength="94.418" x="389.3298" y="405.6502">Add Question</text></g><!--entity UC_Config--><g class="entity" data-qualified-name="Quiz System.UC_Config" data-source-line="24" id="ent0019"><ellipse cx="436.5396" cy="323.0039" fill="#F1F1F1" rx="123.9196" ry="27.1839" style="stroke:#181818;stroke-width:0.5;"/><text fill="#000000" font-family="sans-serif" font-size="14" lengthAdjust="spacing" textLength="227.6982" x="322.6905" y="327.6524">Configure Timer/Points/Difficulty</text></g><!--entity UC_Adaptive--><g class="entity" data-qualified-name="Quiz System.UC_Adaptive" data-source-line="25" id="ent0020"><ellipse cx="436.5416" cy="221.0003" fill="#F1F1F1" rx="102.4516" ry="22.8903" style="stroke:#181818;stroke-width:0.5;"/><text fill="#000000" font-family="sans-serif" font-size="14" lengthAdjust="spacing" textLength="181.4463" x="345.8184" y="225.6488">Enable Adaptive Difficulty</text></g><!--entity UC_GenAI--><g class="entity" data-qualified-name="Quiz System.UC_GenAI" data-source-line="26" id="ent0021"><ellipse cx="436.5449" cy="68.003" fill="#F1F1F1" rx="116.4149" ry="25.683" style="stroke:#181818;stroke-width:0.5;"/><text fill="#000000" font-family="sans-serif" font-size="14" lengthAdjust="spacing" textLength="211.6885" x="330.7006" y="72.6514">Generate Quiz from AI Prompt</text></g><!--entity UC_GenOCR--><g class="entity" data-qualified-name="Quiz System.UC_GenOCR" data-source-line="27" id="ent0022"><ellipse cx="436.5411" cy="1415.9982" fill="#F1F1F1" rx="122.6911" ry="26.9382" style="stroke:#181818;stroke-width:0.5;"/><text fill="#000000" font-family="sans-serif" font-size="14" lengthAdjust="spacing" textLength="225.0869" x="323.9976" y="1420.6467">Generate Quiz from Image Scan</text></g><!--entity UC_Launch--><g class="entity" data-qualified-name="Quiz System.UC_Launch" data-source-line="29" id="ent0023"><ellipse cx="436.5399" cy="1021.004" fill="#F1F1F1" rx="70.8699" ry="16.574" style="stroke:#181818;stroke-width:0.5;"/><text fill="#000000" font-family="sans-serif" font-size="14" lengthAdjust="spacing" textLength="108.5615" x="382.2592" y="1025.6524">Launch Session</text></g><!--entity UC_Wait--><g class="entity" data-qualified-name="Quiz System.UC_Wait" data-source-line="30" id="ent0024"><ellipse cx="436.543" cy="469.9966" fill="#F1F1F1" rx="82.433" ry="18.8866" style="stroke:#181818;stroke-width:0.5;"/><text fill="#000000" font-family="sans-serif" font-size="14" lengthAdjust="spacing" textLength="136.377" x="368.3545" y="474.645">View Waiting Room</text></g><!--entity UC_Start--><g class="entity" data-qualified-name="Quiz System.UC_Start" data-source-line="31" id="ent0025"><ellipse cx="436.5434" cy="1339.0047" fill="#F1F1F1" rx="64.4734" ry="15.2947" style="stroke:#181818;stroke-width:0.5;"/><text fill="#000000" font-family="sans-serif" font-size="14" lengthAdjust="spacing" textLength="92.0664" x="390.5102" y="1343.6531">Start Session</text></g><!--entity UC_Next--><g class="entity" data-qualified-name="Quiz System.UC_Next" data-source-line="32" id="ent0026"><ellipse cx="436.5404" cy="541.9981" fill="#F1F1F1" rx="78.6904" ry="18.1381" style="stroke:#181818;stroke-width:0.5;"/><text fill="#000000" font-family="sans-serif" font-size="14" lengthAdjust="spacing" textLength="127.5791" x="372.7508" y="546.6465">Advance Question</text></g><!--entity UC_Pause--><g class="entity" data-qualified-name="Quiz System.UC_Pause" data-source-line="33" id="ent0027"><ellipse cx="436.5389" cy="1256.0038" fill="#F1F1F1" rx="67.3689" ry="15.8738" style="stroke:#181818;stroke-width:0.5;"/><text fill="#000000" font-family="sans-serif" font-size="14" lengthAdjust="spacing" textLength="99.668" x="386.7049" y="1260.6522">Pause Session</text></g><!--entity UC_Resume--><g class="entity" data-qualified-name="Quiz System.UC_Resume" data-source-line="34" id="ent0028"><ellipse cx="436.5382" cy="146.0036" fill="#F1F1F1" rx="73.3182" ry="17.0636" style="stroke:#181818;stroke-width:0.5;"/><text fill="#000000" font-family="sans-serif" font-size="14" lengthAdjust="spacing" textLength="114.625" x="379.2257" y="150.6521">Resume Session</text></g><!--entity UC_End--><g class="entity" data-qualified-name="Quiz System.UC_End" data-source-line="35" id="ent0029"><ellipse cx="436.5438" cy="609.9968" fill="#F1F1F1" rx="61.6838" ry="14.7368" style="stroke:#181818;stroke-width:0.5;"/><text fill="#000000" font-family="sans-serif" font-size="14" lengthAdjust="spacing" textLength="84.4717" x="394.308" y="614.6452">End Session</text></g><!--entity UC_Join--><g class="entity" data-qualified-name="Quiz System.UC_Join" data-source-line="37" id="ent0030"><ellipse cx="436.5422" cy="1849.0024" fill="#F1F1F1" rx="101.2122" ry="22.6424" style="stroke:#181818;stroke-width:0.5;"/><text fill="#000000" font-family="sans-serif" font-size="14" lengthAdjust="spacing" textLength="178.7256" x="347.1794" y="1853.6509">Join Session via Join Code</text></g><!--entity UC_Rejoin--><g class="entity" data-qualified-name="Quiz System.UC_Rejoin" data-source-line="38" id="ent0031"><ellipse cx="436.5413" cy="1939.0003" fill="#F1F1F1" rx="68.0513" ry="16.0103" style="stroke:#181818;stroke-width:0.5;"/><text fill="#000000" font-family="sans-serif" font-size="14" lengthAdjust="spacing" textLength="101.4248" x="385.8289" y="1943.6487">Rejoin Session</text></g><!--entity UC_ViewQ--><g class="entity" data-qualified-name="Quiz System.UC_ViewQ" data-source-line="39" id="ent0032"><ellipse cx="436.5387" cy="2085.0037" fill="#F1F1F1" rx="91.9687" ry="20.7937" style="stroke:#181818;stroke-width:0.5;"/><text fill="#000000" font-family="sans-serif" font-size="14" lengthAdjust="spacing" textLength="158.1836" x="357.447" y="2089.6522">View Current Question</text></g><!--entity UC_Submit--><g class="entity" data-qualified-name="Quiz System.UC_Submit" data-source-line="40" id="ent0033"><ellipse cx="436.5367" cy="1756.9993" fill="#F1F1F1" rx="76.3467" ry="17.6693" style="stroke:#181818;stroke-width:0.5;"/><text fill="#000000" font-family="sans-serif" font-size="14" lengthAdjust="spacing" textLength="121.9805" x="375.5464" y="1761.6478">Submit Response</text></g><!--entity UC_Correct--><g class="entity" data-qualified-name="Quiz System.UC_Correct" data-source-line="41" id="ent0034"><ellipse cx="436.5355" cy="2009.9991" fill="#F1F1F1" rx="86.4455" ry="19.6891" style="stroke:#181818;stroke-width:0.5;"/><text fill="#000000" font-family="sans-serif" font-size="14" lengthAdjust="spacing" textLength="145.6465" x="363.7123" y="2014.6475">View Correct Answer</text></g><!--entity UC_LiveRank--><g class="entity" data-qualified-name="Quiz System.UC_LiveRank" data-source-line="42" id="ent0035"><ellipse cx="436.5396" cy="2160.9979" fill="#F1F1F1" rx="88.5896" ry="20.1179" style="stroke:#181818;stroke-width:0.5;"/><text fill="#000000" font-family="sans-serif" font-size="14" lengthAdjust="spacing" textLength="150.541" x="361.2691" y="2165.6464">View Live Score/Rank</text></g><!--entity UC_FinalBoard--><g class="entity" data-qualified-name="Quiz System.UC_FinalBoard" data-source-line="43" id="ent0036"><ellipse cx="436.539" cy="2236.9998" fill="#F1F1F1" rx="94.849" ry="21.3698" style="stroke:#181818;stroke-width:0.5;"/><text fill="#000000" font-family="sans-serif" font-size="14" lengthAdjust="spacing" textLength="164.6367" x="354.2206" y="2241.6482">View Final Leaderboard</text></g><!--entity UC_ResponseCount--><g class="entity" data-qualified-name="Quiz System.UC_ResponseCount" data-source-line="45" id="ent0037"><ellipse cx="436.5449" cy="682.997" fill="#F1F1F1" rx="104.0349" ry="23.207" style="stroke:#181818;stroke-width:0.5;"/><text fill="#000000" font-family="sans-serif" font-size="14" lengthAdjust="spacing" textLength="184.9121" x="344.0888" y="687.6454">View Live Response Count</text></g><!--entity UC_Leaderboard--><g class="entity" data-qualified-name="Quiz System.UC_Leaderboard" data-source-line="46" id="ent0038"><ellipse cx="436.5354" cy="759.0011" fill="#F1F1F1" rx="78.4054" ry="18.0811" style="stroke:#181818;stroke-width:0.5;"/><text fill="#000000" font-family="sans-serif" font-size="14" lengthAdjust="spacing" textLength="126.9023" x="373.0842" y="763.6495">View Leaderboard</text></g><!--entity UC_Analytics--><g class="entity" data-qualified-name="Quiz System.UC_Analytics" data-source-line="47" id="ent0039"><ellipse cx="436.5392" cy="1184.0038" fill="#F1F1F1" rx="92.5192" ry="20.9038" style="stroke:#181818;stroke-width:0.5;"/><text fill="#000000" font-family="sans-serif" font-size="14" lengthAdjust="spacing" textLength="159.4209" x="356.8287" y="1188.6523">View Session Analytics</text></g><!--entity UC_Export--><g class="entity" data-qualified-name="Quiz System.UC_Export" data-source-line="48" id="ent0040"><ellipse cx="436.5351" cy="1091.999" fill="#F1F1F1" rx="86.1951" ry="19.639" style="stroke:#181818;stroke-width:0.5;"/><text fill="#000000" font-family="sans-serif" font-size="14" lengthAdjust="spacing" textLength="145.0723" x="363.9989" y="1096.6474">Export Results (CSV)</text></g><!--entity UC_ManageUsers--><g class="entity" data-qualified-name="Quiz System.UC_ManageUsers" data-source-line="50" id="ent0041"><ellipse cx="436.5429" cy="2309.0026" fill="#F1F1F1" rx="67.2129" ry="15.8426" style="stroke:#181818;stroke-width:0.5;"/><text fill="#000000" font-family="sans-serif" font-size="14" lengthAdjust="spacing" textLength="99.2646" x="386.9106" y="2313.651">Manage Users</text></g><!--entity UC_ManageQS--><g class="entity" data-qualified-name="Quiz System.UC_ManageQS" data-source-line="51" id="ent0042"><ellipse cx="436.545" cy="2382.997" fill="#F1F1F1" rx="101.735" ry="22.747" style="stroke:#181818;stroke-width:0.5;"/><text fill="#000000" font-family="sans-serif" font-size="14" lengthAdjust="spacing" textLength="179.874" x="346.6079" y="2387.6454">Manage Quizzes/Sessions</text></g><!--entity UC_Monitor--><g class="entity" data-qualified-name="Quiz System.UC_Monitor" data-source-line="52" id="ent0043"><ellipse cx="436.539" cy="2462.0018" fill="#F1F1F1" rx="92.909" ry="20.9818" style="stroke:#181818;stroke-width:0.5;"/><text fill="#000000" font-family="sans-serif" font-size="14" lengthAdjust="spacing" textLength="160.2959" x="356.391" y="2466.6502">Monitor System Health</text></g><!--entity User--><g class="entity" data-qualified-name="User" data-source-line="4" id="ent0002"><ellipse cx="21.9551" cy="1418.35" fill="#F1F1F1" rx="8" ry="8" style="stroke:#181818;stroke-width:0.5;"/><path d="M21.9551,1426.35 L21.9551,1453.35 M8.9551,1434.35 L34.9551,1434.35 M21.9551,1453.35 L8.9551,1468.35 M21.9551,1453.35 L34.9551,1468.35" fill="none" style="stroke:#181818;stroke-width:0.5;"/><text fill="#000000" font-family="sans-serif" font-size="14" lengthAdjust="spacing" textLength="31.9102" x="6" y="1482.8451">User</text></g><!--entity Creator--><g class="entity" data-qualified-name="Creator" data-source-line="5" id="ent0003"><ellipse cx="142.2671" cy="893.35" fill="#F1F1F1" rx="8" ry="8" style="stroke:#181818;stroke-width:0.5;"/><path d="M142.2671,901.35 L142.2671,928.35 M129.2671,909.35 L155.2671,909.35 M142.2671,928.35 L129.2671,943.35 M142.2671,928.35 L155.2671,943.35" fill="none" style="stroke:#181818;stroke-width:0.5;"/><text fill="#000000" font-family="sans-serif" font-size="14" lengthAdjust="spacing" textLength="52.5342" x="116" y="957.8451">Creator</text></g><!--entity Participant--><g class="entity" data-qualified-name="Participant" data-source-line="6" id="ent0004"><ellipse cx="142.2656" cy="1929.35" fill="#F1F1F1" rx="8" ry="8" style="stroke:#181818;stroke-width:0.5;"/><path d="M142.2656,1937.35 L142.2656,1964.35 M129.2656,1945.35 L155.2656,1945.35 M142.2656,1964.35 L129.2656,1979.35 M142.2656,1964.35 L155.2656,1979.35" fill="none" style="stroke:#181818;stroke-width:0.5;"/><text fill="#000000" font-family="sans-serif" font-size="14" lengthAdjust="spacing" textLength="75.5713" x="104.48" y="1993.8451">Participant</text></g><!--entity Admin--><g class="entity" data-qualified-name="Admin" data-source-line="7" id="ent0005"><ellipse cx="142.2621" cy="2353.35" fill="#F1F1F1" rx="8" ry="8" style="stroke:#181818;stroke-width:0.5;"/><path d="M142.2621,2361.35 L142.2621,2388.35 M129.2621,2369.35 L155.2621,2369.35 M142.2621,2388.35 L129.2621,2403.35 M142.2621,2388.35 L155.2621,2403.35" fill="none" style="stroke:#181818;stroke-width:0.5;"/><text fill="#000000" font-family="sans-serif" font-size="14" lengthAdjust="spacing" textLength="44.8643" x="119.83" y="2417.8451">Admin</text></g><!--entity AI--><g class="entity" data-qualified-name="AI" data-source-line="8" id="ent0006"><ellipse cx="142.2687" cy="38.35" fill="#F1F1F1" rx="8" ry="8" style="stroke:#181818;stroke-width:0.5;"/><path d="M142.2687,46.35 L142.2687,73.35 M129.2687,54.35 L155.2687,54.35 M142.2687,73.35 L129.2687,88.35 M142.2687,73.35 L155.2687,88.35" fill="none" style="stroke:#181818;stroke-width:0.5;"/><text fill="#000000" font-family="sans-serif" font-size="14" lengthAdjust="spacing" textLength="69.8975" x="107.32" y="102.8451">AI Service</text></g><!--entity OCR--><g class="entity" data-qualified-name="OCR" data-source-line="9" id="ent0007"><ellipse cx="142.2669" cy="1386.35" fill="#F1F1F1" rx="8" ry="8" style="stroke:#181818;stroke-width:0.5;"/><path d="M142.2669,1394.35 L142.2669,1421.35 M129.2669,1402.35 L155.2669,1402.35 M142.2669,1421.35 L129.2669,1436.35 M142.2669,1421.35 L155.2669,1436.35" fill="none" style="stroke:#181818;stroke-width:0.5;"/><text fill="#000000" font-family="sans-serif" font-size="14" lengthAdjust="spacing" textLength="86.7139" x="98.91" y="1450.8451">OCR Service</text></g><!--reverse link User to Creator--><g class="link" data-entity-1="ent0002" data-entity-2="ent0003" data-link-type="extension" data-source-line="11" id="lnk8"><path d="M35.6077,1391.8405 C57.5177,1294.6305 110.8,1058.19 132.63,961.31" fill="none" id="User-backto-Creator" style="stroke:#181818;stroke-width:1;"/><polygon fill="none" points="31.65,1409.4,41.4609,1393.1597,29.7545,1390.5212,31.65,1409.4" style="stroke:#181818;stroke-width:1;"/></g><!--reverse link User to Participant--><g class="link" data-entity-1="ent0002" data-entity-2="ent0004" data-link-type="extension" data-source-line="12" id="lnk9"><path d="M35.9099,1503.9462 C57.8599,1598.7562 110.38,1825.58 132.35,1920.5" fill="none" id="User-backto-Participant" style="stroke:#181818;stroke-width:1;"/><polygon fill="none" points="31.85,1486.41,30.0645,1505.2995,41.7553,1502.5929,31.85,1486.41" style="stroke:#181818;stroke-width:1;"/></g><!--link Creator to UC_Register--><g class="link" data-entity-1="ent0003" data-entity-2="ent0011" data-link-type="association" data-source-line="55" id="lnk44"><path d="M146.83,961.64 C155.28,1046.84 178.63,1247.75 215.62,1304 C234.79,1333.15 263.18,1317.79 280.62,1348 C293.1,1369.61 272.47,1440.98 288.62,1460 C306.45,1480.98 334.37,1490.64 361.1,1494.74" fill="none" id="Creator-UC_Register" style="stroke:#181818;stroke-width:1;"/></g><!--link Creator to UC_Login--><g class="link" data-entity-1="ent0003" data-entity-2="ent0012" data-link-type="association" data-source-line="56" id="lnk45"><path d="M146.99,961.18 C160.71,1101.57 208.12,1581.82 215.62,1596 C252.54,1665.72 355.8,1683.73 406.59,1688.38" fill="none" id="Creator-UC_Login" style="stroke:#181818;stroke-width:1;"/></g><!--link Creator to UC_Logout--><g class="link" data-entity-1="ent0003" data-entity-2="ent0013" data-link-type="association" data-source-line="57" id="lnk46"><path d="M145.78,961.63 C151.58,1037.24 169.15,1209.33 215.62,1346 C235.53,1404.54 261.86,1410.08 280.62,1469 C284.77,1482.03 279.37,1519.94 288.62,1530 C316.54,1560.36 365.96,1565.44 399.71,1564.87" fill="none" id="Creator-UC_Logout" style="stroke:#181818;stroke-width:1;"/></g><!--link Creator to UC_Profile--><g class="link" data-entity-1="ent0003" data-entity-2="ent0014" data-link-type="association" data-source-line="58" id="lnk47"><path d="M146.26,961.42 C155.05,1070.07 182.28,1377.79 215.62,1473 C236.38,1532.28 237.55,1557.45 288.62,1594 C313.89,1612.08 347.41,1620.27 376.05,1623.85" fill="none" id="Creator-UC_Profile" style="stroke:#181818;stroke-width:1;"/></g><!--link Creator to UC_CreateQuiz--><g class="link" data-entity-1="ent0003" data-entity-2="ent0015" data-link-type="association" data-source-line="59" id="lnk48"><path d="M169.03,908.88 C182.69,901.64 199.86,892.92 215.62,886 C247.3,872.1 255.42,868.7 288.62,859 C320.95,849.55 358,841.5 386.81,835.84" fill="none" id="Creator-UC_CreateQuiz" style="stroke:#181818;stroke-width:1;"/></g><!--link Creator to UC_EditQuiz--><g class="link" data-entity-1="ent0003" data-entity-2="ent0016" data-link-type="association" data-source-line="60" id="lnk49"><path d="M168.95,920.19 C218.89,914.72 329.6,902.6 391.49,895.82" fill="none" id="Creator-UC_EditQuiz" style="stroke:#181818;stroke-width:1;"/></g><!--link Creator to UC_DeleteQuiz--><g class="link" data-entity-1="ent0003" data-entity-2="ent0017" data-link-type="association" data-source-line="61" id="lnk50"><path d="M168.95,925.81 C216.1,930.97 317.43,942.07 380.69,948.99" fill="none" id="Creator-UC_DeleteQuiz" style="stroke:#181818;stroke-width:1;"/></g><!--link Creator to UC_AddQuestion--><g class="link" data-entity-1="ent0003" data-entity-2="ent0018" data-link-type="association" data-source-line="62" id="lnk51"><path d="M144.22,884.64 C147.31,811.77 160.38,649.67 215.62,527 C237.2,479.09 244.19,462.05 288.62,434 C313.94,418.02 346,409.73 373.7,405.46" fill="none" id="Creator-UC_AddQuestion" style="stroke:#181818;stroke-width:1;"/></g><!--link Creator to UC_Config--><g class="link" data-entity-1="ent0003" data-entity-2="ent0019" data-link-type="association" data-source-line="63" id="lnk52"><path d="M142.62,884.35 C142.63,802.16 150.13,605.47 215.62,458 C236.53,410.93 245.92,396.79 288.62,368 C305.43,356.67 325.21,348.09 344.71,341.65" fill="none" id="Creator-UC_Config" style="stroke:#181818;stroke-width:1;"/></g><!--link Creator to UC_Adaptive--><g class="link" data-entity-1="ent0003" data-entity-2="ent0020" data-link-type="association" data-source-line="64" id="lnk53"><path d="M142.85,884.55 C143.06,795.03 150.53,566.93 215.62,391 C236.37,334.92 242.27,315.77 288.62,278 C311,259.77 339.89,246.88 366.12,238.03" fill="none" id="Creator-UC_Adaptive" style="stroke:#181818;stroke-width:1;"/></g><!--link Creator to UC_GenAI--><g class="link" data-entity-1="ent0003" data-entity-2="ent0021" data-link-type="association" data-source-line="65" id="lnk54"><path d="M144.91,884.54 C150.74,756.92 172.39,348.63 215.62,225 C235.49,168.21 240.47,147.07 288.62,111 C304.79,98.89 324.3,90.18 343.76,83.92" fill="none" id="Creator-UC_GenAI" style="stroke:#181818;stroke-width:1;"/></g><!--link Creator to UC_GenOCR--><g class="link" data-entity-1="ent0003" data-entity-2="ent0022" data-link-type="association" data-source-line="66" id="lnk55"><path d="M146.25,961.25 C152,1013.57 168.59,1108.32 215.62,1173 C236.14,1201.21 263.48,1186.62 280.62,1217 C297.57,1247.04 267.32,1344.87 288.62,1372 C299.48,1385.82 314.5,1395.44 330.82,1402.11" fill="none" id="Creator-UC_GenOCR" style="stroke:#181818;stroke-width:1;"/></g><!--link Creator to UC_Launch--><g class="link" data-entity-1="ent0003" data-entity-2="ent0023" data-link-type="association" data-source-line="67" id="lnk56"><path d="M168.95,936.07 C197.55,950.21 245.45,972.64 288.62,987 C318.31,996.87 352.3,1004.94 380.1,1010.73" fill="none" id="Creator-UC_Launch" style="stroke:#181818;stroke-width:1;"/></g><!--link Creator to UC_Wait--><g class="link" data-entity-1="ent0003" data-entity-2="ent0024" data-link-type="association" data-source-line="68" id="lnk57"><path d="M145.63,884.54 C150.85,820.71 167.03,690.19 215.62,592 C237.86,547.07 245.98,532.36 288.62,506 C310.74,492.33 337.72,483.85 362.5,478.59" fill="none" id="Creator-UC_Wait" style="stroke:#181818;stroke-width:1;"/></g><!--link Creator to UC_Start--><g class="link" data-entity-1="ent0003" data-entity-2="ent0025" data-link-type="association" data-source-line="69" id="lnk58"><path d="M149.04,961.57 C157.35,1006.37 176.24,1080.67 215.62,1132 C236.86,1159.68 263.19,1145.78 280.62,1176 C293.2,1197.81 273.25,1269.06 288.62,1289 C309.1,1315.57 344.41,1328.12 375.28,1334" fill="none" id="Creator-UC_Start" style="stroke:#181818;stroke-width:1;"/></g><!--link Creator to UC_Next--><g class="link" data-entity-1="ent0003" data-entity-2="ent0026" data-link-type="association" data-source-line="70" id="lnk59"><path d="M147.12,884.55 C153.98,829.57 171.96,726.79 215.62,651 C238.53,611.24 248.64,600.51 288.62,578 C312.42,564.6 341.13,556.15 366.83,550.83" fill="none" id="Creator-UC_Next" style="stroke:#181818;stroke-width:1;"/></g><!--link Creator to UC_Pause--><g class="link" data-entity-1="ent0003" data-entity-2="ent0027" data-link-type="association" data-source-line="71" id="lnk60"><path d="M153,961.36 C163.7,997.75 183.74,1052.46 215.62,1091 C237.86,1117.88 262.88,1104.97 280.62,1135 C290.5,1151.71 275.86,1207.37 288.62,1222 C308.42,1244.68 340.08,1253.85 368.95,1257.06" fill="none" id="Creator-UC_Pause" style="stroke:#181818;stroke-width:1;"/></g><!--link Creator to UC_Resume--><g class="link" data-entity-1="ent0003" data-entity-2="ent0028" data-link-type="association" data-source-line="72" id="lnk61"><path d="M142.76,884.44 C142.53,786.43 148.68,520.84 215.62,313 C236.18,249.19 235.24,221.56 288.62,181 C310.65,164.26 339.47,155.38 365.75,150.71" fill="none" id="Creator-UC_Resume" style="stroke:#181818;stroke-width:1;"/></g><!--link Creator to UC_End--><g class="link" data-entity-1="ent0003" data-entity-2="ent0029" data-link-type="association" data-source-line="73" id="lnk62"><path d="M149.9,884.44 C159.07,839.05 178.81,762.79 215.62,707 C239.55,670.74 249.91,661.71 288.62,642 C316.54,627.79 350.57,619.87 378.84,615.46" fill="none" id="Creator-UC_End" style="stroke:#181818;stroke-width:1;"/></g><!--link Creator to UC_ResponseCount--><g class="link" data-entity-1="ent0003" data-entity-2="ent0037" data-link-type="association" data-source-line="74" id="lnk63"><path d="M150.52,884.47 C159.59,846.21 178.64,788.18 215.62,752 C249.24,719.12 298.32,701.89 341.6,692.87" fill="none" id="Creator-UC_ResponseCount" style="stroke:#181818;stroke-width:1;"/></g><!--link Creator to UC_Leaderboard--><g class="link" data-entity-1="ent0003" data-entity-2="ent0038" data-link-type="association" data-source-line="75" id="lnk64"><path d="M153.97,884.43 C164.5,854.01 183.75,813.13 215.62,791 C257.69,761.79 315.27,754.27 360.96,753.8" fill="none" id="Creator-UC_Leaderboard" style="stroke:#181818;stroke-width:1;"/></g><!--link Creator to UC_Analytics--><g class="link" data-entity-1="ent0003" data-entity-2="ent0039" data-link-type="association" data-source-line="76" id="lnk65"><path d="M159.51,961.54 C172.11,988.39 191.49,1023.93 215.62,1050 C239.32,1075.6 260.92,1065.21 280.62,1094 C289.64,1107.17 278.12,1116.99 288.62,1129 C307.27,1150.32 335.02,1163.39 361.39,1171.4" fill="none" id="Creator-UC_Analytics" style="stroke:#181818;stroke-width:1;"/></g><!--link Creator to UC_Export--><g class="link" data-entity-1="ent0003" data-entity-2="ent0040" data-link-type="association" data-source-line="77" id="lnk66"><path d="M168.8,954.23 C195.47,984.72 240.13,1030.04 288.62,1055 C312.01,1067.04 339.54,1075.32 364.42,1080.94" fill="none" id="Creator-UC_Export" style="stroke:#181818;stroke-width:1;"/></g><!--link Participant to UC_Register--><g class="link" data-entity-1="ent0004" data-entity-2="ent0011" data-link-type="association" data-source-line="79" id="lnk67"><path d="M144.46,1920.66 C149.22,1836.67 172.81,1635.53 288.62,1530 C308.59,1511.81 336.27,1502.59 362.23,1498.07" fill="none" id="Participant-UC_Register" style="stroke:#181818;stroke-width:1;"/></g><!--link Participant to UC_Login--><g class="link" data-entity-1="ent0004" data-entity-2="ent0012" data-link-type="association" data-source-line="80" id="lnk68"><path d="M180.41,1938.65 C219.03,1917.13 274.71,1884.94 280.62,1875 C289.33,1860.37 277.6,1734.97 288.62,1722 C317.44,1688.08 373.04,1685.15 406.97,1686.97" fill="none" id="Participant-UC_Login" style="stroke:#181818;stroke-width:1;"/></g><!--link Participant to UC_Logout--><g class="link" data-entity-1="ent0004" data-entity-2="ent0013" data-link-type="association" data-source-line="81" id="lnk69"><path d="M160.5,1920.62 C173.26,1895.01 192.41,1861.65 215.62,1837 C239.54,1811.61 263.66,1823.48 280.62,1793 C291.39,1773.66 274.4,1610.95 288.62,1594 C315.39,1562.11 365.84,1557.53 400.06,1558.62" fill="none" id="Participant-UC_Logout" style="stroke:#181818;stroke-width:1;"/></g><!--link Participant to UC_Profile--><g class="link" data-entity-1="ent0004" data-entity-2="ent0014" data-link-type="association" data-source-line="82" id="lnk70"><path d="M174.24,1920.48 C186.43,1906.39 201,1890.78 215.62,1878 C241.89,1855.04 263.58,1864.44 280.62,1834 C290.19,1816.92 276,1672.96 288.62,1658 C309.84,1632.86 345.76,1624.72 376.77,1622.93" fill="none" id="Participant-UC_Profile" style="stroke:#181818;stroke-width:1;"/></g><!--link Participant to UC_Join--><g class="link" data-entity-1="ent0004" data-entity-2="ent0030" data-link-type="association" data-source-line="83" id="lnk71"><path d="M180.54,1970.34 C211.12,1977.14 253.64,1980.49 280.62,1957 C298.26,1941.65 273.93,1923.19 288.62,1905 C305.44,1884.19 330.91,1871.11 355.94,1862.89" fill="none" id="Participant-UC_Join" style="stroke:#181818;stroke-width:1;"/></g><!--link Participant to UC_Rejoin--><g class="link" data-entity-1="ent0004" data-entity-2="ent0031" data-link-type="association" data-source-line="84" id="lnk72"><path d="M180.5,1983.58 C191.37,1989.49 203.59,1994.96 215.62,1998 C243.63,2005.07 257.29,2015.03 280.62,1998 C290.05,1991.12 280.04,1980.9 288.62,1973 C310.1,1953.22 340.74,1944.23 368.48,1940.37" fill="none" id="Participant-UC_Rejoin" style="stroke:#181818;stroke-width:1;"/></g><!--link Participant to UC_ViewQ--><g class="link" data-entity-1="ent0004" data-entity-2="ent0032" data-link-type="association" data-source-line="85" id="lnk73"><path d="M170.83,1997.55 C183.01,2011.96 198.46,2027.2 215.62,2037 C256.09,2060.11 306.58,2072.11 348.97,2078.33" fill="none" id="Participant-UC_ViewQ" style="stroke:#181818;stroke-width:1;"/></g><!--link Participant to UC_Submit--><g class="link" data-entity-1="ent0004" data-entity-2="ent0033" data-link-type="association" data-source-line="86" id="lnk74"><path d="M180.54,1958.26 C212.43,1955.45 256.85,1945.94 280.62,1916 C295.45,1897.33 274.14,1827.94 288.62,1809 C307.27,1784.6 338.27,1771.62 366.99,1764.72" fill="none" id="Participant-UC_Submit" style="stroke:#181818;stroke-width:1;"/></g><!--link Participant to UC_Correct--><g class="link" data-entity-1="ent0004" data-entity-2="ent0034" data-link-type="association" data-source-line="87" id="lnk75"><path d="M180.18,1995.66 C190.78,2003.95 202.93,2011.6 215.62,2016 C266.15,2033.51 327.18,2030.07 372.12,2023.37" fill="none" id="Participant-UC_Correct" style="stroke:#181818;stroke-width:1;"/></g><!--link Participant to UC_LiveRank--><g class="link" data-entity-1="ent0004" data-entity-2="ent0035" data-link-type="association" data-source-line="88" id="lnk76"><path d="M163.34,1997.61 C176.36,2020.48 194.75,2049.16 215.62,2071 C243.15,2099.8 252.52,2106.18 288.62,2123 C312.86,2134.29 340.98,2142.61 366.08,2148.52" fill="none" id="Participant-UC_LiveRank" style="stroke:#181818;stroke-width:1;"/></g><!--link Participant to UC_FinalBoard--><g class="link" data-entity-1="ent0004" data-entity-2="ent0036" data-link-type="association" data-source-line="89" id="lnk77"><path d="M153.6,1997.6 C170.93,2053.7 211.77,2155.78 288.62,2199 C309.75,2210.88 334.67,2219.13 357.92,2224.82" fill="none" id="Participant-UC_FinalBoard" style="stroke:#181818;stroke-width:1;"/></g><!--link Admin to UC_ManageUsers--><g class="link" data-entity-1="ent0005" data-entity-2="ent0041" data-link-type="association" data-source-line="91" id="lnk78"><path d="M165.19,2374.28 C179.41,2368.83 198.43,2361.94 215.62,2357 C271.77,2340.86 337.34,2327.2 382.18,2318.63" fill="none" id="Admin-UC_ManageUsers" style="stroke:#181818;stroke-width:1;"/></g><!--link Admin to UC_ManageQS--><g class="link" data-entity-1="ent0005" data-entity-2="ent0042" data-link-type="association" data-source-line="92" id="lnk79"><path d="M164.76,2383 C200.22,2383 273.17,2383 334.42,2383" fill="none" id="Admin-UC_ManageQS" style="stroke:#181818;stroke-width:1;"/></g><!--link Admin to UC_Monitor--><g class="link" data-entity-1="ent0005" data-entity-2="ent0043" data-link-type="association" data-source-line="93" id="lnk80"><path d="M164.92,2389.02 C193.31,2396.91 244.66,2411.12 288.62,2423 C316.9,2430.64 348.28,2438.99 374.75,2445.99" fill="none" id="Admin-UC_Monitor" style="stroke:#181818;stroke-width:1;"/></g><!--link AI to UC_GenAI--><g class="link" data-entity-1="ent0006" data-entity-2="ent0021" data-link-type="association" data-source-line="95" id="lnk81"><path d="M177.65,68 C212.66,68 268.9,68 319.93,68" fill="none" id="AI-UC_GenAI" style="stroke:#181818;stroke-width:1;"/></g><!--link OCR to UC_GenOCR--><g class="link" data-entity-1="ent0007" data-entity-2="ent0022" data-link-type="association" data-source-line="96" id="lnk82"><path d="M186.08,1416 C219.69,1416 268.24,1416 313.59,1416" fill="none" id="OCR-UC_GenOCR" style="stroke:#181818;stroke-width:1;"/></g><!--link UC_CreateQuiz to UC_Login--><g class="link" data-entity-1="ent0015" data-entity-2="ent0012" data-link-type="dependency" data-source-line="98" id="lnk83"><path d="M376.2,824.52 C345.61,826.67 310.42,834.96 288.62,859 C180.59,978.16 256.29,1057.92 247.03,1218.5 C241.38,1316.44 223.35,1584.76 288.62,1658 C318.08,1691.05 366.8461,1694.7315 400.8461,1693.1915" fill="none" id="UC_CreateQuiz-to-UC_Login" style="stroke:#181818;stroke-width:1;stroke-dasharray:7,7;"/><polygon fill="#181818" points="406.84,1692.92,397.6682,1689.3313,401.8451,1693.1462,398.0302,1697.3231,406.84,1692.92" style="stroke:#181818;stroke-width:1;"/><text fill="#000000" font-family="sans-serif" font-size="13" lengthAdjust="spacing" textLength="63.0068" x="216.62" y="1231.5669">&#171;include&#187;</text></g><!--link UC_EditQuiz to UC_Login--><g class="link" data-entity-1="ent0016" data-entity-2="ent0012" data-link-type="dependency" data-source-line="99" id="lnk84"><path d="M389.7,888.05 C356.64,888.71 313.89,895.55 288.62,923 C192.24,1027.71 256.29,1098.48 247.03,1240.5 C234.89,1426.58 164.18,1519.12 288.62,1658 C318.17,1690.97 366.9058,1694.6647 400.8758,1693.1647" fill="none" id="UC_EditQuiz-to-UC_Login" style="stroke:#181818;stroke-width:1;stroke-dasharray:7,7;"/><polygon fill="#181818" points="406.87,1692.9,397.7023,1689.3009,401.8749,1693.1206,398.0552,1697.2931,406.87,1692.9" style="stroke:#181818;stroke-width:1;"/><text fill="#000000" font-family="sans-serif" font-size="13" lengthAdjust="spacing" textLength="63.0068" x="216.62" y="1253.5669">&#171;include&#187;</text></g><!--link UC_DeleteQuiz to UC_Login--><g class="link" data-entity-1="ent0017" data-entity-2="ent0012" data-link-type="dependency" data-source-line="100" id="lnk85"><path d="M376.16,952.86 C345.75,955.13 310.74,963.44 288.62,987 C203.87,1077.29 256.3,1139.02 247.03,1262.5 C233.8,1438.75 170.28,1526.72 288.62,1658 C318.27,1690.88 366.9756,1694.5997 400.9056,1693.1297" fill="none" id="UC_DeleteQuiz-to-UC_Login" style="stroke:#181818;stroke-width:1;stroke-dasharray:7,7;"/><polygon fill="#181818" points="406.9,1692.87,397.7353,1689.2633,401.9047,1693.0864,398.0816,1697.2558,406.9,1692.87" style="stroke:#181818;stroke-width:1;"/><text fill="#000000" font-family="sans-serif" font-size="13" lengthAdjust="spacing" textLength="63.0068" x="216.62" y="1275.5669">&#171;include&#187;</text></g><!--link UC_Launch to UC_Login--><g class="link" data-entity-1="ent0023" data-entity-2="ent0012" data-link-type="dependency" data-source-line="101" id="lnk86"><path d="M365.46,1021.25 C337.93,1025.05 308.36,1034.31 288.62,1055 C216.78,1130.33 256.31,1181.82 247.03,1285.5 C232.18,1451.42 176.65,1534.66 288.62,1658 C318.38,1690.78 367.0554,1694.5247 400.9454,1693.0847" fill="none" id="UC_Launch-to-UC_Login" style="stroke:#181818;stroke-width:1;stroke-dasharray:7,7;"/><polygon fill="#181818" points="406.94,1692.83,397.7783,1689.2157,401.9445,1693.0423,398.1179,1697.2085,406.94,1692.83" style="stroke:#181818;stroke-width:1;"/><text fill="#000000" font-family="sans-serif" font-size="13" lengthAdjust="spacing" textLength="63.0068" x="216.62" y="1298.5669">&#171;include&#187;</text></g><!--link UC_Submit to UC_Join--><g class="link" data-entity-1="ent0033" data-entity-2="ent0030" data-link-type="dependency" data-source-line="102" id="lnk87"><path d="M436.54,1774.87 C436.54,1789.54 436.54,1804.4 436.54,1820.26" fill="none" id="UC_Submit-to-UC_Join" style="stroke:#181818;stroke-width:1;stroke-dasharray:7,7;"/><polygon fill="#181818" points="436.54,1826.26,440.54,1817.26,436.54,1821.26,432.54,1817.26,436.54,1826.26" style="stroke:#181818;stroke-width:1;"/><text fill="#000000" font-family="sans-serif" font-size="13" lengthAdjust="spacing" textLength="63.0068" x="393.54" y="1805.0769">&#171;include&#187;</text></g><!--link UC_Export to UC_Analytics--><g class="link" data-entity-1="ent0040" data-entity-2="ent0039" data-link-type="dependency" data-source-line="103" id="lnk88"><path d="M436.54,1111.96 C436.54,1126.93 436.54,1141.37 436.54,1156.66" fill="none" id="UC_Export-to-UC_Analytics" style="stroke:#181818;stroke-width:1;stroke-dasharray:7,7;"/><polygon fill="#181818" points="436.54,1162.66,440.54,1153.66,436.54,1157.66,432.54,1153.66,436.54,1162.66" style="stroke:#181818;stroke-width:1;"/><text fill="#000000" font-family="sans-serif" font-size="13" lengthAdjust="spacing" textLength="63.0068" x="393.54" y="1141.9369">&#171;include&#187;</text></g><!--link UC_Rejoin to UC_Join--><g class="link" data-entity-1="ent0031" data-entity-2="ent0030" data-link-type="dependency" data-source-line="105" id="lnk89"><path d="M436.54,1922.49 C436.54,1908.28 436.54,1893.64 436.54,1877.84" fill="none" id="UC_Rejoin-to-UC_Join" style="stroke:#181818;stroke-width:1;stroke-dasharray:7,7;"/><polygon fill="#181818" points="436.54,1871.84,432.54,1880.84,436.54,1876.84,440.54,1880.84,436.54,1871.84" style="stroke:#181818;stroke-width:1;"/><text fill="#000000" font-family="sans-serif" font-size="13" lengthAdjust="spacing" textLength="61.1851" x="394.54" y="1901.8869">&#171;extend&#187;</text></g><!--link UC_Pause to UC_Start--><g class="link" data-entity-1="ent0027" data-entity-2="ent0025" data-link-type="dependency" data-source-line="106" id="lnk90"><path d="M436.54,1272.11 C436.54,1286.92 436.54,1302.74 436.54,1317.39" fill="none" id="UC_Pause-to-UC_Start" style="stroke:#181818;stroke-width:1;stroke-dasharray:7,7;"/><polygon fill="#181818" points="436.54,1323.39,440.54,1314.39,436.54,1318.39,432.54,1314.39,436.54,1323.39" style="stroke:#181818;stroke-width:1;"/><text fill="#000000" font-family="sans-serif" font-size="13" lengthAdjust="spacing" textLength="61.1851" x="394.54" y="1302.3569">&#171;extend&#187;</text></g><!--link UC_Resume to UC_Pause--><g class="link" data-entity-1="ent0028" data-entity-2="ent0027" data-link-type="dependency" data-source-line="107" id="lnk91"><path d="M363.08,145.86 C335.69,149.79 306.86,159.44 288.62,181 C197.52,288.7 241.03,673.61 248.03,814.5 C257.06,996.28 168.33,1085.42 288.62,1222 C308.48,1244.54 334.0184,1253.072 362.8584,1256.352" fill="none" id="UC_Resume-to-UC_Pause" style="stroke:#181818;stroke-width:1;stroke-dasharray:7,7;"/><polygon fill="#181818" points="368.82,1257.03,360.3297,1252.0386,363.852,1256.465,359.4256,1259.9874,368.82,1257.03" style="stroke:#181818;stroke-width:1;"/><text fill="#000000" font-family="sans-serif" font-size="13" lengthAdjust="spacing" textLength="61.1851" x="217.62" y="810.5669">&#171;extend&#187;</text></g><!--link UC_Correct to UC_Submit--><g class="link" data-entity-1="ent0034" data-entity-2="ent0033" data-link-type="dependency" data-source-line="108" id="lnk92"><path d="M352.37,2005.19 C329,1999.91 305.44,1990.25 288.62,1973 C225.75,1908.53 187.37,1841.05 248.03,1774.5 C280.69,1738.67 332.3503,1737.4713 375.3203,1743.6113" fill="none" id="UC_Correct-to-UC_Submit" style="stroke:#181818;stroke-width:1;stroke-dasharray:7,7;"/><polygon fill="#181818" points="381.26,1744.46,372.9163,1739.2271,376.3103,1743.7527,371.7847,1747.1467,381.26,1744.46" style="stroke:#181818;stroke-width:1;"/><text fill="#000000" font-family="sans-serif" font-size="13" lengthAdjust="spacing" textLength="61.1851" x="217.62" y="1787.5669">&#171;extend&#187;</text></g><!--link UC_Adaptive to UC_Config--><g class="link" data-entity-1="ent0020" data-entity-2="ent0019" data-link-type="dependency" data-source-line="109" id="lnk93"><path d="M436.54,244.14 C436.54,259.36 436.54,273.35 436.54,289.4" fill="none" id="UC_Adaptive-to-UC_Config" style="stroke:#181818;stroke-width:1;stroke-dasharray:7,7;"/><polygon fill="#181818" points="436.54,295.4,440.54,286.4,436.54,290.4,432.54,286.4,436.54,295.4" style="stroke:#181818;stroke-width:1;"/><text fill="#000000" font-family="sans-serif" font-size="13" lengthAdjust="spacing" textLength="61.1851" x="394.54" y="274.4169">&#171;extend&#187;</text></g><?plantuml-src VLPBRnCn43wplyBA2GwGEwegXPH7KO4qeUM8tDr9wdRNZcnlsXJux_YTiHtbbFYRpvxnF3vl3sjDj22IRUurwPY4LZF16_N8-9PAEf0jRH_f1bPwtmEnPietFJGDRRMGv4Q137_d4gZv3Qi5bPgrR4kv3iYi6nWF_oUpIx82kMCjJ0XLP7OP3J_coynYrarZlP2pls_V9YS713jgKdnaSZso5xBQAmt3XFnfNeqAMggCOGaRPb0JKDkAaMldvcR-E-A8UYKsZ4UxM-H6CMfaDIjalcNmH1PIh5aFaHIM3QAv2m6nqKQMXoo2U1yxfZEM1GhE1VHGdEMXWZVhEaC2PIiTYGQB48vEy3NRZ1B8JpQ0d2u4urfDBzXwpTgnr_iKioFYU3czCsMOTNIhsGv8lIMQqARFm476T92r58Ff39l4OPiIRJYcMqxkkHnCmv9LIpdQv1e9LO-ElBqthQOKoe97ooh-eamplY5B8OR8j1ZYhRHfm_8q1sPvtr7UGfNxx_2CQGjg_fPdEJ3hOZKE5SkZMHcwacCWd8YlfgIHGdQC4WVCHPUwrWAPvmUqvU3v8QUvpCr7AO7hwiRMU8tJDzuDfhzD-5l1LVBiuUfG8UsSanbNJo0F7UZGadnbcs_L2WdJ9UMFgT06jkkI_ebnsfChe1t8Eq5b5pSummUBD4TTnD1DT9ccUDI1rRxQ2u9ATYpHpCInDugdqXn509VzUIkaowUPE4LUprUtRrBzdGtVuXlbTc2ifgPJFUQWccb7xGNKDCHKRBfUuHs2ColiNed95w2zlazyRsp-DKqGTc8K7Mjn3di9hZ0hl3aOXJP7aR3cXgIbEOp4CpTWiInSU1qiwK7fSjWhMOLPeIgkw5Kf1vq0vP3Ncnnpsb8anqb9cN0d74LQZ59KDDJFHPIeTulxfmujpW-TY9xmilwroVV0KTpsGMs8lL1RdB0TS_vmtE1LgyQ3JDM6g4b7eetwKvkmqhXlfe3ZYQnnCtGP62QhCUydxZRxUPLrMfFD1Nbtdd9CtfEpCyRRVkpW_Bn1OtAQTPYQqxpm0f_aX7V1Szp3L0VbfSvJKgSLl2QLjJpBZ0VmpX_b7rvFy0zwoGYlhgTuUac9hrCunb-W9ANF8i_ogf6n_WC0?></g></svg>